<?xml version="1.0" encoding="UTF-8" ?>
<svg width="65" height="65" viewBox="0 0 40 40" fill="none" xmlns="http://www.w3.org/2000/svg">>
    <circle cx="20" cy="20" r="20" fill="url(#paint0_linear)"></circle>
    <path d="M20.0002 12.2225C20.6126 12.2225 21.1088 11.7251 21.1088 11.1113C21.1088 10.4975 20.6126 10 20.0002 10C19.388 10 18.8914 10.4974 18.8914 11.1113C18.8914 11.7251 19.388 12.2225 20.0002 12.2225ZM20.7107 21.2549L28.7208 14.132C29.0142 13.8711 29.0408 13.4211 28.7804 13.1268C28.52 12.8326 28.0711 12.8055 27.7777 13.0665L20.0001 19.9826L12.2225 13.0665C11.9291 12.8056 11.4802 12.8326 11.2198 13.1268C10.9593 13.4211 10.986 13.8711 11.2794 14.132L19.2896 21.255V30.2883C19.2896 30.6814 19.6077 31 20.0001 31C20.3925 31 20.7107 30.6814 20.7107 30.2883V21.2549ZM12.1088 24.3813C11.4964 24.3813 11 24.8791 11 25.4928C11 26.1067 11.4963 26.6039 12.1088 26.6039C12.721 26.6039 13.2174 26.1067 13.2174 25.4928C13.2174 24.8791 12.721 24.3813 12.1088 24.3813ZM27.8913 24.3813C27.2791 24.3813 26.7827 24.8791 26.7827 25.4928C26.7827 26.1067 27.2791 26.6039 27.8913 26.6039C28.5036 26.6039 29 26.1067 29 25.4928C29 24.8791 28.5036 24.3813 27.8913 24.3813Z" fill="black">
    </path>
    <defs>
        <linearGradient id="paint0_linear" x1="6.5" y1="5" x2="32.5" y2="37.5" gradientUnits="userSpaceOnUse">
            <stop stop-color="#51A2E8"> </stop>
            <stop offset="1" stop-color="#9DC5E6"> </stop>
        </linearGradient>
    </defs>
</svg>
